<svg xmlns="http://www.w3.org/2000/svg" viewBox="0 0 512 512" fill="none">
  <defs>
    <linearGradient id="flameGrad512" x1="0%" y1="0%" x2="0%" y2="100%">
      <stop offset="0%" style="stop-color:#ff8c42"/>
      <stop offset="50%" style="stop-color:#f97316"/>
      <stop offset="100%" style="stop-color:#ea580c"/>
    </linearGradient>
    <filter id="shadow512">
      <feDropShadow dx="0" dy="4" stdDeviation="8" flood-opacity="0.3"/>
    </filter>
  </defs>
  
  <!-- Background with rounded corners -->
  <rect width="512" height="512" rx="112" fill="#0a0a0a"/>
  
  <!-- Main flame body -->
  <path d="M 256 96 
           C 256 96, 208 144, 208 192
           C 208 240, 232 264, 256 296
           C 256 264, 272 240, 288 216
           C 296 200, 304 184, 304 168
           C 304 136, 288 112, 256 96 Z"
        fill="url(#flameGrad512)" 
        filter="url(#shadow512)"/>
  
  <path d="M 256 296
           C 232 320, 176 352, 176 416
           C 176 464, 208 504, 256 512
           C 304 504, 336 464, 336 416
           C 336 352, 280 320, 256 296 Z"
        fill="url(#flameGrad512)" 
        filter="url(#shadow512)"/>
  
  <!-- Inner highlights -->
  <path d="M 256 144
           C 256 144, 240 168, 240 192
           C 240 216, 248 232, 256 248
           C 264 232, 272 216, 272 192
           C 272 168, 256 144, 256 144 Z"
        fill="#ffd700" 
        opacity="0.6"/>
  
  <ellipse cx="256" cy="400" rx="40" ry="56" fill="#ffe680" opacity="0.5"/>
</svg>
